TITLE ""
FILE "P1Q_t_1059-1067.mp3" MP3
  TRACK 01 AUDIO
    TITLE "P1Q_t_1059-1067_01"
    INDEX 01 00:00:00
  TRACK 02 AUDIO
    TITLE "P1Q_t_1059-1067_02"
    INDEX 01 00:00:08
  TRACK 03 AUDIO
    TITLE "P1Q_t_1059-1067_03"
    INDEX 01 00:01:35
  TRACK 04 AUDIO
    TITLE "P1Q_t_1059-1067_04"
    INDEX 01 00:01:59
  TRACK 05 AUDIO
    TITLE "P1Q_t_1059-1067_05"
    INDEX 01 00:03:54
  TRACK 06 AUDIO
    TITLE "P1Q_t_1059-1067_06"
    INDEX 01 00:03:73
  TRACK 07 AUDIO
    TITLE "P1Q_t_1059-1067_07"
    INDEX 01 00:09:17
  TRACK 08 AUDIO
    TITLE "P1Q_t_1059-1067_08"
    INDEX 01 00:09:62
  TRACK 09 AUDIO
    TITLE "P1Q_t_1059-1067_09"
    INDEX 01 00:11:22
  TRACK 10 AUDIO
    TITLE "P1Q_t_1059-1067_10"
    INDEX 01 00:11:45
  TRACK 11 AUDIO
    TITLE "P1Q_t_1059-1067_11"
    INDEX 01 00:15:16
  TRACK 12 AUDIO
    TITLE "P1Q_t_1059-1067_12"
    INDEX 01 00:15:37
  TRACK 13 AUDIO
    TITLE "P1Q_t_1059-1067_13"
    INDEX 01 00:20:05
  TRACK 14 AUDIO
    TITLE "P1Q_t_1059-1067_14"
    INDEX 01 00:20:50
  TRACK 15 AUDIO
    TITLE "P1Q_t_1059-1067_15"
    INDEX 01 00:21:69
  TRACK 16 AUDIO
    TITLE "P1Q_t_1059-1067_16"
    INDEX 01 00:22:14
  TRACK 17 AUDIO
    TITLE "P1Q_t_1059-1067_17"
    INDEX 01 00:23:39
  TRACK 18 AUDIO
    TITLE "P1Q_t_1059-1067_18"
    INDEX 01 00:23:60
  TRACK 19 AUDIO
    TITLE "P1Q_t_1059-1067_19"
    INDEX 01 00:27:50
  TRACK 20 AUDIO
    TITLE "P1Q_t_1059-1067_20"
    INDEX 01 00:28:18
  TRACK 21 AUDIO
    TITLE "P1Q_t_1059-1067_21"
    INDEX 01 00:29:57
  TRACK 22 AUDIO
    TITLE "P1Q_t_1059-1067_22"
    INDEX 01 00:30:04
  TRACK 23 AUDIO
    TITLE "P1Q_t_1059-1067_23"
    INDEX 01 00:32:32
  TRACK 24 AUDIO
    TITLE "P1Q_t_1059-1067_24"
    INDEX 01 00:32:49
  TRACK 25 AUDIO
    TITLE "P1Q_t_1059-1067_25"
    INDEX 01 00:37:35
  TRACK 26 AUDIO
    TITLE "P1Q_t_1059-1067_26"
    INDEX 01 00:38:05
  TRACK 27 AUDIO
    TITLE "P1Q_t_1059-1067_27"
    INDEX 01 00:39:12
  TRACK 28 AUDIO
    TITLE "P1Q_t_1059-1067_28"
    INDEX 01 00:39:32
  TRACK 29 AUDIO
    TITLE "P1Q_t_1059-1067_29"
    INDEX 01 00:42:26
  TRACK 30 AUDIO
    TITLE "P1Q_t_1059-1067_30"
    INDEX 01 00:42:46
  TRACK 31 AUDIO
    TITLE "P1Q_t_1059-1067_31"
    INDEX 01 00:46:40
  TRACK 32 AUDIO
    TITLE "P1Q_t_1059-1067_32"
    INDEX 01 00:47:10
  TRACK 33 AUDIO
    TITLE "P1Q_t_1059-1067_33"
    INDEX 01 00:48:35
  TRACK 34 AUDIO
    TITLE "P1Q_t_1059-1067_34"
    INDEX 01 00:49:05
  TRACK 35 AUDIO
    TITLE "P1Q_t_1059-1067_35"
    INDEX 01 00:50:18
  TRACK 36 AUDIO
    TITLE "P1Q_t_1059-1067_36"
    INDEX 01 00:50:40
  TRACK 37 AUDIO
    TITLE "P1Q_t_1059-1067_37"
    INDEX 01 00:53:01
  TRACK 38 AUDIO
    TITLE "P1Q_t_1059-1067_38"
    INDEX 01 00:53:18
  TRACK 39 AUDIO
    TITLE "P1Q_t_1059-1067_39"
    INDEX 01 00:57:36
  TRACK 40 AUDIO
    TITLE "P1Q_t_1059-1067_40"
    INDEX 01 00:58:10
  TRACK 41 AUDIO
    TITLE "P1Q_t_1059-1067_41"
    INDEX 01 00:59:39
  TRACK 42 AUDIO
    TITLE "P1Q_t_1059-1067_42"
    INDEX 01 00:59:60
  TRACK 43 AUDIO
    TITLE "P1Q_t_1059-1067_43"
    INDEX 01 01:02:27
  TRACK 44 AUDIO
    TITLE "P1Q_t_1059-1067_44"
    INDEX 01 01:02:47
  TRACK 45 AUDIO
    TITLE "P1Q_t_1059-1067_45"
    INDEX 01 01:06:72
  TRACK 46 AUDIO
    TITLE "P1Q_t_1059-1067_46"
    INDEX 01 01:07:44
  TRACK 47 AUDIO
    TITLE "P1Q_t_1059-1067_47"
    INDEX 01 01:08:53
  TRACK 48 AUDIO
    TITLE "P1Q_t_1059-1067_48"
    INDEX 01 01:09:00
  TRACK 49 AUDIO
    TITLE "P1Q_t_1059-1067_49"
    INDEX 01 01:11:36
  TRACK 50 AUDIO
    TITLE "P1Q_t_1059-1067_50"
    INDEX 01 01:11:55
  TRACK 51 AUDIO
    TITLE "P1Q_t_1059-1067_51"
    INDEX 01 01:16:15
  TRACK 52 AUDIO
    TITLE "P1Q_t_1059-1067_52"
    INDEX 01 01:16:60
  TRACK 53 AUDIO
    TITLE "P1Q_t_1059-1067_53"
    INDEX 01 01:18:08
  TRACK 54 AUDIO
    TITLE "P1Q_t_1059-1067_54"
    INDEX 01 01:18:28
  TRACK 55 AUDIO
    TITLE "P1Q_t_1059-1067_55"
    INDEX 01 01:20:50
  TRACK 56 AUDIO
    TITLE "P1Q_t_1059-1067_56"
    INDEX 01 01:20:68
  TRACK 57 AUDIO
    TITLE "P1Q_t_1059-1067_57"
    INDEX 01 01:25:46
